<?xml version="1.0" encoding="UTF-8" standalone="no"?>
<!DOCTYPE svg PUBLIC "-//W3C//DTD SVG 1.1//EN"
 "http://www.w3.org/Graphics/SVG/1.1/DTD/svg11.dtd">
<!-- Generated by graphviz version 2.42.4 (0)
 -->
<!-- Title: G Pages: 1 -->
<svg width="1575pt" height="505pt"
 viewBox="0.00 0.00 1575.00 505.00" xmlns="http://www.w3.org/2000/svg" xmlns:xlink="http://www.w3.org/1999/xlink">
<g id="graph0" class="graph" transform="scale(1 1) rotate(0) translate(4 501)">
<title>G</title>
<polygon fill="white" stroke="transparent" points="-4,4 -4,-501 1571,-501 1571,4 -4,4"/>
<text text-anchor="middle" x="783.5" y="-478.6" font-family="Times,serif" font-size="18.00">DirtyJTAG Universal Pico Programmer + Debugger Front&#45;End Rev B</text>
<!-- usb -->
<g id="node1" class="node">
<title>usb</title>
<polygon fill="none" stroke="black" points="59,-187 0,-187 0,-151 59,-151 59,-187"/>
<text text-anchor="middle" x="29.5" y="-166.5" font-family="Times,serif" font-size="10.00">USB 5 V</text>
</g>
<!-- pico -->
<g id="node2" class="node">
<title>pico</title>
<polygon fill="none" stroke="black" points="748,-187 594,-187 594,-151 748,-151 748,-187"/>
<text text-anchor="middle" x="671" y="-172" font-family="Times,serif" font-size="10.00">Raspberry Pi Pico / RP2040</text>
<text text-anchor="middle" x="671" y="-161" font-family="Times,serif" font-size="10.00">Zephyr + USB DJP2</text>
</g>
<!-- usb&#45;&gt;pico -->
<g id="edge1" class="edge">
<title>usb&#45;&gt;pico</title>
<path fill="none" stroke="black" d="M59.15,-169C59.15,-169 583.97,-169 583.97,-169"/>
<polygon fill="black" stroke="black" points="583.97,-172.5 593.97,-169 583.97,-165.5 583.97,-172.5"/>
</g>
<!-- reg -->
<g id="node3" class="node">
<title>reg</title>
<polygon fill="none" stroke="black" points="220,-284 100,-284 100,-248 220,-248 220,-284"/>
<text text-anchor="middle" x="160" y="-269" font-family="Times,serif" font-size="10.00">U1 TPS630702</text>
<text text-anchor="middle" x="160" y="-258" font-family="Times,serif" font-size="10.00">3.3 / 5.0 V selectable</text>
</g>
<!-- usb&#45;&gt;reg -->
<g id="edge2" class="edge">
<title>usb&#45;&gt;reg</title>
<path fill="none" stroke="black" d="M30,-187.24C30,-215.34 30,-266 30,-266 30,-266 89.95,-266 89.95,-266"/>
<polygon fill="black" stroke="black" points="89.95,-269.5 99.95,-266 89.95,-262.5 89.95,-269.5"/>
</g>
<!-- boost -->
<g id="node10" class="node">
<title>boost</title>
<polygon fill="none" stroke="black" points="1001.5,-71 917.5,-71 917.5,-35 1001.5,-35 1001.5,-71"/>
<text text-anchor="middle" x="959.5" y="-56" font-family="Times,serif" font-size="10.00">U3 TPS61040</text>
<text text-anchor="middle" x="959.5" y="-45" font-family="Times,serif" font-size="10.00">~11.8 V VPP</text>
</g>
<!-- usb&#45;&gt;boost -->
<g id="edge12" class="edge">
<title>usb&#45;&gt;boost</title>
<path fill="none" stroke="black" d="M30,-150.88C30,-118.25 30,-53 30,-53 30,-53 907.45,-53 907.45,-53"/>
<polygon fill="black" stroke="black" points="907.45,-56.5 917.45,-53 907.45,-49.5 907.45,-56.5"/>
</g>
<!-- xlat -->
<g id="node7" class="node">
<title>xlat</title>
<polygon fill="none" stroke="black" points="1023,-308.5 896,-308.5 896,-267.5 1023,-267.5 1023,-308.5"/>
<text text-anchor="middle" x="959.5" y="-296.5" font-family="Times,serif" font-size="10.00">U5..U9 SN74LVC1T45</text>
<text text-anchor="middle" x="959.5" y="-285.5" font-family="Times,serif" font-size="10.00">CLK/D0/D1/D2/AUX</text>
<text text-anchor="middle" x="959.5" y="-274.5" font-family="Times,serif" font-size="10.00">3.3V &lt;&#45;&gt; VTARGET</text>
</g>
<!-- pico&#45;&gt;xlat -->
<g id="edge7" class="edge">
<title>pico&#45;&gt;xlat</title>
<path fill="none" stroke="black" d="M748.28,-178C817.1,-178 907,-178 907,-178 907,-178 907,-257.31 907,-257.31"/>
<polygon fill="black" stroke="black" points="903.5,-257.31 907,-267.31 910.5,-257.31 903.5,-257.31"/>
<text text-anchor="middle" x="822" y="-284.8" font-family="Times,serif" font-size="9.00">GPIO2..5,7 + DIR8..12</text>
</g>
<!-- iso -->
<g id="node8" class="node">
<title>iso</title>
<polygon fill="none" stroke="black" points="1287.5,-257 1171.5,-257 1171.5,-221 1287.5,-221 1287.5,-257"/>
<text text-anchor="middle" x="1229.5" y="-242" font-family="Times,serif" font-size="10.00">U10 TMUX4827</text>
<text text-anchor="middle" x="1229.5" y="-231" font-family="Times,serif" font-size="10.00">DATA0 HV isolation</text>
</g>
<!-- pico&#45;&gt;iso -->
<g id="edge17" class="edge">
<title>pico&#45;&gt;iso</title>
<path fill="none" stroke="black" d="M734,-187.25C734,-206.63 734,-234.5 734,-234.5 734,-234.5 1161.2,-234.5 1161.2,-234.5"/>
<polygon fill="black" stroke="black" points="1161.2,-238 1171.2,-234.5 1161.2,-231 1161.2,-238"/>
<text text-anchor="middle" x="959.5" y="-234.8" font-family="Times,serif" font-size="9.00">GP19 isolate</text>
</g>
<!-- pico&#45;&gt;boost -->
<g id="edge20" class="edge">
<title>pico&#45;&gt;boost</title>
<path fill="none" stroke="black" d="M748.33,-153.25C829.67,-153.25 946,-153.25 946,-153.25 946,-153.25 946,-81.39 946,-81.39"/>
<polygon fill="black" stroke="black" points="949.5,-81.39 946,-71.39 942.5,-81.39 949.5,-81.39"/>
<text text-anchor="middle" x="822" y="-75.8" font-family="Times,serif" font-size="9.00">GP16</text>
</g>
<!-- mclr -->
<g id="node11" class="node">
<title>mclr</title>
<polygon fill="none" stroke="black" points="1293.5,-71 1165.5,-71 1165.5,-35 1293.5,-35 1293.5,-71"/>
<text text-anchor="middle" x="1229.5" y="-56" font-family="Times,serif" font-size="10.00">Q1/Q2 + JP1</text>
<text text-anchor="middle" x="1229.5" y="-45" font-family="Times,serif" font-size="10.00">MCLR/VPP HV switch</text>
</g>
<!-- pico&#45;&gt;mclr -->
<g id="edge18" class="edge">
<title>pico&#45;&gt;mclr</title>
<path fill="none" stroke="black" d="M748.09,-155.5C847.28,-155.5 1007,-155.5 1007,-155.5 1007,-155.5 1007,-53 1007,-53 1007,-53 1155.44,-53 1155.44,-53"/>
<polygon fill="black" stroke="black" points="1155.44,-56.5 1165.44,-53 1155.44,-49.5 1155.44,-56.5"/>
<text text-anchor="middle" x="959.5" y="-2.8" font-family="Times,serif" font-size="9.00">GP17</text>
</g>
<!-- updi -->
<g id="node12" class="node">
<title>updi</title>
<polygon fill="none" stroke="black" points="1295,-136 1164,-136 1164,-100 1295,-100 1295,-136"/>
<text text-anchor="middle" x="1229.5" y="-121" font-family="Times,serif" font-size="10.00">Q4/Q5 + JP2 + 1k</text>
<text text-anchor="middle" x="1229.5" y="-110" font-family="Times,serif" font-size="10.00">UPDI DATA0 HV pulse</text>
</g>
<!-- pico&#45;&gt;updi -->
<g id="edge19" class="edge">
<title>pico&#45;&gt;updi</title>
<path fill="none" stroke="black" d="M748.11,-157.75C887.71,-157.75 1168,-157.75 1168,-157.75 1168,-157.75 1168,-146.01 1168,-146.01"/>
<polygon fill="black" stroke="black" points="1171.5,-146.01 1168,-136.01 1164.5,-146.01 1171.5,-146.01"/>
<text text-anchor="middle" x="959.5" y="-123.8" font-family="Times,serif" font-size="9.00">GP20</text>
</g>
<!-- rst -->
<g id="node13" class="node">
<title>rst</title>
<polygon fill="none" stroke="black" points="1144,-196 1043,-196 1043,-160 1144,-160 1144,-196"/>
<text text-anchor="middle" x="1093.5" y="-181" font-family="Times,serif" font-size="10.00">Q3 2N7002</text>
<text text-anchor="middle" x="1093.5" y="-170" font-family="Times,serif" font-size="10.00">open&#45;drain reset</text>
</g>
<!-- pico&#45;&gt;rst -->
<g id="edge21" class="edge">
<title>pico&#45;&gt;rst</title>
<path fill="none" stroke="black" d="M748,-169C748,-169 1032.88,-169 1032.88,-169"/>
<polygon fill="black" stroke="black" points="1032.88,-172.5 1042.88,-169 1032.88,-165.5 1032.88,-172.5"/>
<text text-anchor="middle" x="822" y="-171.8" font-family="Times,serif" font-size="9.00">GP6</text>
</g>
<!-- sw -->
<g id="node4" class="node">
<title>sw</title>
<polygon fill="none" stroke="black" points="390,-328.5 261,-328.5 261,-287.5 390,-287.5 390,-328.5"/>
<text text-anchor="middle" x="325.5" y="-316.5" font-family="Times,serif" font-size="10.00">U2 TPS2553</text>
<text text-anchor="middle" x="325.5" y="-305.5" font-family="Times,serif" font-size="10.00">~500 mA current limit</text>
<text text-anchor="middle" x="325.5" y="-294.5" font-family="Times,serif" font-size="10.00">FAULT#</text>
</g>
<!-- reg&#45;&gt;sw -->
<g id="edge3" class="edge">
<title>reg&#45;&gt;sw</title>
<path fill="none" stroke="black" d="M220.4,-275.75C267.86,-275.75 326,-275.75 326,-275.75 326,-275.75 326,-277.39 326,-277.39"/>
<polygon fill="black" stroke="black" points="322.5,-277.39 326,-287.39 329.5,-277.39 322.5,-277.39"/>
</g>
<!-- shunt -->
<g id="node5" class="node">
<title>shunt</title>
<polygon fill="none" stroke="black" points="553,-406 431,-406 431,-370 553,-370 553,-406"/>
<text text-anchor="middle" x="492" y="-391" font-family="Times,serif" font-size="10.00">0.1R + U4 INA180A2</text>
<text text-anchor="middle" x="492" y="-380" font-family="Times,serif" font-size="10.00">current sense</text>
</g>
<!-- sw&#45;&gt;shunt -->
<g id="edge4" class="edge">
<title>sw&#45;&gt;shunt</title>
<path fill="none" stroke="black" d="M390.35,-318.5C437.1,-318.5 492,-318.5 492,-318.5 492,-318.5 492,-359.74 492,-359.74"/>
<polygon fill="black" stroke="black" points="488.5,-359.74 492,-369.74 495.5,-359.74 488.5,-359.74"/>
</g>
<!-- vt -->
<g id="node6" class="node">
<title>vt</title>
<polygon fill="none" stroke="black" points="705,-469 637,-469 637,-433 705,-433 705,-469"/>
<text text-anchor="middle" x="671" y="-448.5" font-family="Times,serif" font-size="10.00">VTARGET</text>
</g>
<!-- shunt&#45;&gt;vt -->
<g id="edge5" class="edge">
<title>shunt&#45;&gt;vt</title>
<path fill="none" stroke="black" d="M553.02,-398.8C597.86,-398.8 651,-398.8 651,-398.8 651,-398.8 651,-422.74 651,-422.74"/>
<polygon fill="black" stroke="black" points="647.5,-422.74 651,-432.74 654.5,-422.74 647.5,-422.74"/>
</g>
<!-- adc -->
<g id="node14" class="node">
<title>adc</title>
<polygon fill="none" stroke="black" points="1280,-421 1179,-421 1179,-369 1280,-369 1280,-421"/>
<text text-anchor="middle" x="1229.5" y="-409" font-family="Times,serif" font-size="10.00">ADC</text>
<text text-anchor="middle" x="1229.5" y="-398" font-family="Times,serif" font-size="10.00">VTARGET GP26</text>
<text text-anchor="middle" x="1229.5" y="-387" font-family="Times,serif" font-size="10.00">VPP GP27</text>
<text text-anchor="middle" x="1229.5" y="-376" font-family="Times,serif" font-size="10.00">CURRENT GP28</text>
</g>
<!-- shunt&#45;&gt;adc -->
<g id="edge25" class="edge">
<title>shunt&#45;&gt;adc</title>
<path fill="none" stroke="black" d="M553.29,-391.6C553.29,-391.6 1168.97,-391.6 1168.97,-391.6"/>
<polygon fill="black" stroke="black" points="1168.97,-395.1 1178.97,-391.6 1168.97,-388.1 1168.97,-395.1"/>
</g>
<!-- vt&#45;&gt;xlat -->
<g id="edge8" class="edge">
<title>vt&#45;&gt;xlat</title>
<path fill="none" stroke="black" d="M678,-432.85C678,-392.32 678,-298 678,-298 678,-298 885.97,-298 885.97,-298"/>
<polygon fill="black" stroke="black" points="885.97,-301.5 895.97,-298 885.97,-294.5 885.97,-301.5"/>
<text text-anchor="middle" x="822" y="-433.8" font-family="Times,serif" font-size="9.00">VCCB</text>
</g>
<!-- conn -->
<g id="node9" class="node">
<title>conn</title>
<polygon fill="none" stroke="black" points="1567,-232.5 1390,-232.5 1390,-191.5 1567,-191.5 1567,-232.5"/>
<text text-anchor="middle" x="1478.5" y="-220.5" font-family="Times,serif" font-size="10.00">Universal 2x5 target</text>
<text text-anchor="middle" x="1478.5" y="-209.5" font-family="Times,serif" font-size="10.00">VTGT GND CLK DATA0</text>
<text text-anchor="middle" x="1478.5" y="-198.5" font-family="Times,serif" font-size="10.00">DATA1 DATA2 RESET/VPP AUX</text>
</g>
<!-- vt&#45;&gt;conn -->
<g id="edge6" class="edge">
<title>vt&#45;&gt;conn</title>
<path fill="none" stroke="black" d="M665,-432.96C665,-377.15 665,-211 665,-211 665,-211 1379.89,-211 1379.89,-211"/>
<polygon fill="black" stroke="black" points="1379.89,-214.5 1389.89,-211 1379.89,-207.5 1379.89,-214.5"/>
</g>
<!-- vt&#45;&gt;adc -->
<g id="edge23" class="edge">
<title>vt&#45;&gt;adc</title>
<path fill="none" stroke="black" d="M692,-432.69C692,-423.17 692,-413.5 692,-413.5 692,-413.5 1168.93,-413.5 1168.93,-413.5"/>
<polygon fill="black" stroke="black" points="1168.93,-417 1178.93,-413.5 1168.93,-410 1168.93,-417"/>
</g>
<!-- xlat&#45;&gt;iso -->
<g id="edge9" class="edge">
<title>xlat&#45;&gt;iso</title>
<path fill="none" stroke="black" d="M1018,-267.35C1018,-259.54 1018,-252.5 1018,-252.5 1018,-252.5 1161.43,-252.5 1161.43,-252.5"/>
<polygon fill="black" stroke="black" points="1161.43,-256 1171.43,-252.5 1161.43,-249 1161.43,-256"/>
<text text-anchor="middle" x="1093.5" y="-274.8" font-family="Times,serif" font-size="9.00">DATA0</text>
</g>
<!-- xlat&#45;&gt;conn -->
<g id="edge11" class="edge">
<title>xlat&#45;&gt;conn</title>
<path fill="none" stroke="black" d="M1013,-267.17C1013,-245.91 1013,-216 1013,-216 1013,-216 1379.85,-216 1379.85,-216"/>
<polygon fill="black" stroke="black" points="1379.85,-219.5 1389.85,-216 1379.85,-212.5 1379.85,-219.5"/>
<text text-anchor="middle" x="1229.5" y="-333.8" font-family="Times,serif" font-size="9.00">CLK/D1/D2/AUX</text>
</g>
<!-- iso&#45;&gt;conn -->
<g id="edge10" class="edge">
<title>iso&#45;&gt;conn</title>
<path fill="none" stroke="black" d="M1287.57,-226.75C1287.57,-226.75 1379.56,-226.75 1379.56,-226.75"/>
<polygon fill="black" stroke="black" points="1379.56,-230.25 1389.56,-226.75 1379.56,-223.25 1379.56,-230.25"/>
<text text-anchor="middle" x="1342.5" y="-236.8" font-family="Times,serif" font-size="9.00">DATA0</text>
</g>
<!-- boost&#45;&gt;mclr -->
<g id="edge13" class="edge">
<title>boost&#45;&gt;mclr</title>
<path fill="none" stroke="black" d="M1001.69,-44C1001.69,-44 1155.26,-44 1155.26,-44"/>
<polygon fill="black" stroke="black" points="1155.26,-47.5 1165.26,-44 1155.26,-40.5 1155.26,-47.5"/>
</g>
<!-- boost&#45;&gt;updi -->
<g id="edge15" class="edge">
<title>boost&#45;&gt;updi</title>
<path fill="none" stroke="black" d="M974,-71.11C974,-90.34 974,-118 974,-118 974,-118 1153.7,-118 1153.7,-118"/>
<polygon fill="black" stroke="black" points="1153.7,-121.5 1163.7,-118 1153.7,-114.5 1153.7,-121.5"/>
</g>
<!-- boost&#45;&gt;adc -->
<g id="edge24" class="edge">
<title>boost&#45;&gt;adc</title>
<path fill="none" stroke="black" d="M1001.7,-62C1058.91,-62 1154,-62 1154,-62 1154,-62 1154,-377.2 1154,-377.2 1154,-377.2 1168.72,-377.2 1168.72,-377.2"/>
<polygon fill="black" stroke="black" points="1168.72,-380.7 1178.72,-377.2 1168.72,-373.7 1168.72,-380.7"/>
</g>
<!-- mclr&#45;&gt;conn -->
<g id="edge14" class="edge">
<title>mclr&#45;&gt;conn</title>
<path fill="none" stroke="black" d="M1293.75,-53C1367.68,-53 1479,-53 1479,-53 1479,-53 1479,-181.21 1479,-181.21"/>
<polygon fill="black" stroke="black" points="1475.5,-181.21 1479,-191.21 1482.5,-181.21 1475.5,-181.21"/>
<text text-anchor="middle" x="1342.5" y="-72.8" font-family="Times,serif" font-size="9.00">RESET/VPP</text>
</g>
<!-- updi&#45;&gt;conn -->
<g id="edge16" class="edge">
<title>updi&#45;&gt;conn</title>
<path fill="none" stroke="black" d="M1292,-136.01C1292,-160.42 1292,-201 1292,-201 1292,-201 1379.89,-201 1379.89,-201"/>
<polygon fill="black" stroke="black" points="1379.89,-204.5 1389.89,-201 1379.89,-197.5 1379.89,-204.5"/>
<text text-anchor="middle" x="1342.5" y="-144.8" font-family="Times,serif" font-size="9.00">DATA0 HV</text>
</g>
<!-- rst&#45;&gt;conn -->
<g id="edge22" class="edge">
<title>rst&#45;&gt;conn</title>
<path fill="none" stroke="black" d="M1094,-196.21C1094,-201.55 1094,-206 1094,-206 1094,-206 1379.81,-206 1379.81,-206"/>
<polygon fill="black" stroke="black" points="1379.81,-209.5 1389.81,-206 1379.81,-202.5 1379.81,-209.5"/>
<text text-anchor="middle" x="1229.5" y="-188.8" font-family="Times,serif" font-size="9.00">RESET sink</text>
</g>
<!-- adc&#45;&gt;pico -->
<g id="edge26" class="edge">
<title>adc&#45;&gt;pico</title>
<path fill="none" stroke="black" d="M1178.78,-384.4C1049.91,-384.4 720,-384.4 720,-384.4 720,-384.4 720,-197.36 720,-197.36"/>
<polygon fill="black" stroke="black" points="723.5,-197.36 720,-187.36 716.5,-197.36 723.5,-197.36"/>
</g>
</g>
</svg>
